<svg xmlns="http://www.w3.org/2000/svg" viewBox="0 0 458.82785 688.37196"><defs><style>.cls-1{fill:none;}.cls-2{fill:#0d86ff;}.cls-3{fill:#0295ff;}</style></defs><g id="Layer_2" data-name="Layer 2"><g id="Layer_1-2" data-name="Layer 1"><path class="cls-1" d="M0,.26025H458.82785V688.37188H0Z"/><path class="cls-2" d="M229.28379,344.31606a114.772,114.772,0,1,1,114.772,114.772,114.79117,114.79117,0,0,1-114.772-114.772Z"/><path class="cls-2" d="M0,573.59988a114.79115,114.79115,0,0,1,114.772-114.772H229.544v114.772a114.772,114.772,0,1,1-229.544,0Z"/><path class="cls-3" d="M229.28379.26025V229.544h114.772a114.772,114.772,0,1,0,0-229.544h-114.772Z"/><path class="cls-2" d="M0,115.03227a114.79117,114.79117,0,0,0,114.772,114.772H229.544V.26025H114.772A114.62493,114.62493,0,0,0,0,115.03227Z"/><path class="cls-3" d="M0,344.31606a114.79115,114.79115,0,0,0,114.772,114.772H229.544V229.544H114.772A114.79118,114.79118,0,0,0,0,344.31606Z"/></g></g></svg>