<?xml version="1.0" encoding="utf-8"?>
<!-- Generator: Adobe Illustrator 25.4.1, SVG Export Plug-In . SVG Version: 6.00 Build 0)  -->
<svg version="1.1" id="Layer_1" xmlns="http://www.w3.org/2000/svg" xmlns:xlink="http://www.w3.org/1999/xlink" x="0px" y="0px"
	 viewBox="0 0 2500 689" style="enable-background:new 0 0 2500 689;" xml:space="preserve">
<style type="text/css">
	.st0{fill:none;}
	.st1{fill:#0D86FF;}
	.st2{fill:#0295FF;}
</style>
<path class="st0" d="M0,0.6h458.8v688.1H0V0.6z"/>
<path class="st1" d="M229.3,344.6c0-63.2,51.3-114.8,114.8-114.8c63.2,0,114.8,51.3,114.8,114.8c0,63.2-51.3,114.8-114.8,114.8
	C280.8,459.4,229.3,407.9,229.3,344.6L229.3,344.6z"/>
<path class="st1" d="M0,573.9c0-63.2,51.3-114.8,114.8-114.8h114.8v114.8c0,63.2-51.3,114.8-114.8,114.8S0,637.4,0,573.9L0,573.9z"
	/>
<path class="st2" d="M229.3,0.6v229.3h114.8c63.2,0,114.8-51.3,114.8-114.8c0-63.2-51.3-114.8-114.8-114.8H229.3V0.6z"/>
<path class="st1" d="M0,115.3c0,63.2,51.3,114.8,114.8,114.8h114.8V0.6H114.8C51.3,0.6,0,51.8,0,115.3z"/>
<path class="st2" d="M0,344.6c0,63.2,51.3,114.8,114.8,114.8h114.8V229.9H114.8C51.3,229.9,0,281.4,0,344.6z"/>
</svg>
