<?xml version="1.0" encoding="utf-8"?>
<!-- Generator: Adobe Illustrator 25.4.1, SVG Export Plug-In . SVG Version: 6.00 Build 0)  -->
<svg version="1.1" id="Capa_1" xmlns="http://www.w3.org/2000/svg" xmlns:xlink="http://www.w3.org/1999/xlink" x="0px" y="0px"
	 viewBox="0 0 512 512" style="enable-background:new 0 0 512 512;" xml:space="preserve">
<style type="text/css">
	.st0{fill:#1060FF;}
	.st1{fill:#0D86FF;}
</style>
<path class="st0" d="M441.7,189.9L308,177.5L254.8,54.2c-3.7-8.6-16-8.6-19.7,0L182,177.5L48.3,189.9c-9.4,0.9-13.1,12.5-6.1,18.7
	l100.9,88.6l-29.5,131c-2.1,9.2,7.8,16.4,15.9,11.6L245,371.3l115.5,68.6c8.1,4.8,18-2.4,15.9-11.6l-29.5-131l100.9-88.6
	C454.9,202.5,451.1,190.8,441.7,189.9z"/>
<path class="st1" d="M274.2,99l-19.3-44.9c-3.7-8.6-16-8.6-19.7,0L182,177.5L48.3,189.9c-9.4,0.9-13.1,12.5-6.1,18.7l100.9,88.6
	l-29.5,131c-2.1,9.2,7.8,16.4,15.9,11.6l15.4-9.1C170.1,267.7,240.9,147.9,274.2,99z"/>
</svg>
