<svg xmlns="http://www.w3.org/2000/svg" viewBox="0 0 232.38 193.28"><defs><style>.a{fill:#0d86ff;}</style></defs><path class="a" d="M97.78,41.64h120c19.43.29,19.49-30.28,0-30h-120C78.36,11.36,78.29,41.93,97.78,41.64Zm120,40h-120c-19.42-.28-19.48,30.29,0,30h120C237.21,111.93,237.27,81.36,217.78,81.64Zm0,70h-120c-19.42-.28-19.48,30.29,0,30h120C237.21,181.93,237.27,151.36,217.78,151.64ZM48.88,84.71l-10-1.45C36.41,79.08,34.11,69.47,27.7,70,21.31,69.46,19,79.1,16.5,83.26c-4.73,1.07-14.58.29-16,6.55C-2,95.72,6.4,100.92,9.59,104.55c-.45,4.83-4.24,14,1.27,17.28,4.85,4.22,12.4-2.21,16.84-4.13,2.47,1,9.69,5.89,12.44,5.56,10.41-.37,6.87-12.22,5.67-18.71l7.22-7C57.48,93.44,54.87,85.38,48.88,84.71Zm0-70-10-1.45C36.41,9.08,34.11-.53,27.7,0,21.31-.54,19,9.1,16.5,13.26c-4.73,1.07-14.58.29-16,6.55C-2,25.72,6.4,30.92,9.59,34.55c-.45,4.83-4.24,14,1.27,17.28,4.85,4.22,12.4-2.21,16.84-4.13,2.47,1,9.69,5.89,12.44,5.56C50.55,52.89,47,41,45.81,34.55l7.22-7C57.48,23.44,54.87,15.38,48.88,14.71Zm0,140-10-1.45c-2.48-4.18-4.78-13.79-11.19-13.24-6.39-.56-8.74,9.08-11.2,13.24-4.73,1.07-14.58.29-16,6.55C-2,165.72,6.4,170.92,9.59,174.55c-.45,4.83-4.24,14,1.27,17.28,4.85,4.22,12.4-2.21,16.84-4.13,2.47,1,9.69,5.89,12.44,5.56,10.41-.37,6.87-12.22,5.67-18.71L53,167.5C57.48,163.44,54.87,155.38,48.88,154.71Z"/></svg>